# xmcd
# Track frame offsets:
# 183
# 13683
# 26433
# 37383
# 50408
# 61295
# 76908
# 86858
# 100883
# 113333
# 124783
# 134845
# 149758
# 159745
# 170245
# 183558
# 201958
# 212783
# 224695
# 239345
#
# Disc length: 3369 seconds
# Revision: 0
# Processed by: cddbd v1.4PL0 Copyright (c) Steve Scherf et al.
# Submitted via: VisiTrax 2.9.5.181 - For more info visit www.synapsa.com
#
DISCID=390d2714
DTITLE=Woody Guthrie - Deja Vu Modern Times
DYEAR=1980
DGENRE=Folk
TTITLE0=House of the Rising Sun
TTITLE1=Oregon Trail
TTITLE2=Columbus Stockade
TTITLE3=Chain Gang Special
TTITLE4=Poor Boy
TTITLE5=Mean Talkin Blues
TTITLE6=Little Darling
TTITLE7=You Shall Be Free
TTITLE8=John Henry
TTITLE9=Slip Knot
TTITLE10=Dig My Life Away
TTITLE11=Train Blues
TTITLE12=Hard Tarvellin
TTITLE13=Cumberland Gap
TTITLE14=Sourwood Mountain
TTITLE15=Lost John
TTITLE16=Guitar Blues
TTITLE17=Jack-Hammer Blues
TTITLE18=Boll Weevil Blues
TTITLE19=Baltimore to Washington
EXTD=
EXTT0=
EXTT1=
EXTT2=
EXTT3=
EXTT4=
EXTT5=
EXTT6=
EXTT7=
EXTT8=
EXTT9=
EXTT10=
EXTT11=
EXTT12=
EXTT13=
EXTT14=
EXTT15=
EXTT16=
EXTT17=
EXTT18=
EXTT19=
PLAYORDER=
